PathFileType	4	(X/Y/Z)	C:\Users\Basilio\Documents\Thesis Gigler\squatting_fais\c3dfiles\075\SLS_front_pre2\markers_experimental.trc
DataRate	CameraRate	NumFrames	NumMarkers	Units	OrigDataRate	OrigDataStartFrame	OrigNumFrames
200.000000	200.000000	4	61	mm	200.000000	184	1473
Frame#	Time	FHD			LBHD			C7			T10			CLAV			LSHO			LUUPA			LMUPA			LDUPA			LLEP			LMEP			LRAD			LUL			LRFIN			RSHO			RUPA1			RMUPA			RDUPA			RLEP			RMEP			RRAD			RUL			RUFIN			RASI			USACR			LSACR			RSACR			LTHI1			LTHI2			LTHI3			LTHI4			LLFC			LMFC			LTIB1			LTIB2			LTIB3			LTIB4			LLMAL			LMMAL			LHEE			LMT1			LMT2			LMT5			RTHI			RTHI2			RTHI3			RTHI4			RLFC			RMFC			RTIB1			RTIB2			RTIB3			RTIB4			RLMAL			RMMAL			RHEE			RMT1			RMT2			RMT5			RBHD			LASI			
		X1	Y1	Z1	X2	Y2	Z2	X3	Y3	Z3	X4	Y4	Z4	X5	Y5	Z5	X6	Y6	Z6	X7	Y7	Z7	X8	Y8	Z8	X9	Y9	Z9	X10	Y10	Z10	X11	Y11	Z11	X12	Y12	Z12	X13	Y13	Z13	X14	Y14	Z14	X15	Y15	Z15	X16	Y16	Z16	X17	Y17	Z17	X18	Y18	Z18	X19	Y19	Z19	X20	Y20	Z20	X21	Y21	Z21	X22	Y22	Z22	X23	Y23	Z23	X24	Y24	Z24	X25	Y25	Z25	X26	Y26	Z26	X27	Y27	Z27	X28	Y28	Z28	X29	Y29	Z29	X30	Y30	Z30	X31	Y31	Z31	X32	Y32	Z32	X33	Y33	Z33	X34	Y34	Z34	X35	Y35	Z35	X36	Y36	Z36	X37	Y37	Z37	X38	Y38	Z38	X39	Y39	Z39	X40	Y40	Z40	X41	Y41	Z41	X42	Y42	Z42	X43	Y43	Z43	X44	Y44	Z44	X45	Y45	Z45	X46	Y46	Z46	X47	Y47	Z47	X48	Y48	Z48	X49	Y49	Z49	X50	Y50	Z50	X51	Y51	Z51	X52	Y52	Z52	X53	Y53	Z53	X54	Y54	Z54	X55	Y55	Z55	X56	Y56	Z56	X57	Y57	Z57	X58	Y58	Z58	X59	Y59	Z59	X60	Y60	Z60	X61	Y61	Z61	

185	0.92	-316.3894958496094	1707.676391601563	-803.4505004882815	-455.6769104003907	1581.717651367188	-871.2611083984377	-487.4493408203126	1464.737060546875	-815.335876464844	-482.2545166015626	1139.37646484375	-815.521667480469	-339.9665222167969	1413.25048828125	-803.0432739257815	-363.9259033203126	1446.759765625	-956.0261230468752	-250.5187530517579	1295.159545898438	-1061.086669921875	-211.2798156738282	1305.520629882813	-1032.422485351563	-190.7742156982422	1259.892333984375	-1066.74609375	-115.5988540649414	1217.103881835938	-1056.458374023438	-165.0214080810547	1155.16845703125	-1012.624572753906	nan	nan	nan	70.96218109130861	1166.513793945313	-888.975036621094	69.26734161376955	1200.825927734375	-786.3951416015627	-386.2984619140626	1437.754150390625	-651.2606201171876	-299.2658996582032	1271.632934570313	-533.7861938476564	-253.487777709961	1277.994506835938	-550.6149291992189	-246.7661743164063	1226.568725585938	-518.4293823242189	-186.099853515625	1187.954833984375	-514.7114868164064	-208.6008300781251	1124.595336914063	-560.2467651367189	5.182853221893311	1196.531982421875	-718.1490478515626	31.64718055725098	1164.797607421875	-652.8110961914064	88.31111907958986	1207.074462890625	-744.9834594726564	-302.7237243652344	985.050476074219	-691.3264770507814	-466.0340270996095	1037.350341796875	-819.592956542969	-469.8344726562501	1005.593017578125	-847.0897216796877	-469.3052673339845	1006.247924804688	-789.706481933594	-333.3067016601563	739.3116455078126	-1029.856201171875	-294.1369934082032	663.6549072265626	-1032.72900390625	-249.6449890136719	672.7445068359376	-1015.145263671875	-316.3962097167969	608.0793457031251	-1026.339477539063	-311.3537597656251	499.6900024414064	-1022.918151855469	-263.9802856445313	481.7615051269532	-900.998474121094	-245.3679962158204	380.8284301757813	-1002.024963378906	-303.8184204101563	341.4876403808594	-1052.430908203125	-262.4216918945313	335.9704589843751	-1034.957275390625	-259.5504760742188	253.8686523437501	-1012.690124511719	-323.2043762207032	108.8514099121094	-1042.180419921875	-295.7054443359376	119.5243148803711	-959.8103637695315	-376.9843750000001	73.23634338378908	-1002.6240234375	-170.4556579589844	53.31629562377931	-967.573669433594	-164.1292724609375	58.1693687438965	-1015.956237792969	-200.5261688232422	41.39936447143555	-1069.448974609375	-346.1040954589844	773.7664794921877	-636.1549072265626	-302.7371520996094	725.2434692382814	-641.6774291992189	-272.2947082519532	735.0446166992189	-652.1006469726564	-322.0230712890626	642.4739990234376	-656.0035400390626	-323.6058959960938	489.4872436523439	-695.7062988281251	-283.6494750976563	493.4610290527345	-818.3723754882815	-280.6592407226563	345.4093322753907	-773.0704345703127	-340.1132507324219	267.6116638183594	-724.1077270507814	-303.4558105468751	262.5696411132813	-755.8232421875001	-317.6269226074219	222.6714477539063	-797.1055297851565	-397.5039062500001	108.346549987793	-773.2114257812502	-363.1448059082032	136.1270446777344	-850.8279418945315	-447.9137573242189	91.00354766845705	-835.2537841796877	-242.8851470947266	59.26004791259767	-824.173767089844	-248.3392791748047	56.59407043457033	-781.5738525390627	-290.0705871582032	34.65815353393555	-734.2963867187501	-422.0330505371095	1624.269653320313	-718.1807861328126	-305.1803283691407	981.5344238281252	-948.0382080078127	
186	0.925	-316.8176269531251	1707.6357421875	-803.0713500976565	-455.9214477539064	1581.65576171875	-870.6644287109377	-487.7227783203126	1464.740966796875	-814.8757934570315	-482.507781982422	1139.205810546875	-815.1669921875002	-340.2777404785157	1413.31396484375	-802.6011962890627	-364.4161376953126	1446.95166015625	-955.4553222656252	-248.8890380859376	1296.949096679688	-1060.096313476563	-209.9936065673829	1307.408325195313	-1031.009521484375	-189.1628112792969	1262.0908203125	-1065.320068359375	-113.7777862548828	1220.254516601563	-1055.055053710938	-162.4272918701172	1157.730834960938	-1011.213012695313	nan	nan	nan	74.10498046875001	1170.968139648438	-888.4495239257815	73.05025482177736	1205.362060546875	-786.2436523437502	-386.6251831054689	1437.8828125	-651.0132446289064	-297.9828491210938	1273.067993164063	-534.1362915039064	-252.2933654785157	1280.154663085938	-549.8225097656251	-244.9658508300782	1228.451538085938	-518.4654541015626	-183.8722076416016	1190.529541015625	-514.7609252929689	-205.6374511718751	1126.880615234375	-560.3419799804689	8.003345489501955	1200.4345703125	-717.6059570312501	34.57340240478516	1168.969848632813	-652.2379150390626	91.33837890625001	1211.658325195313	-744.1970825195314	-302.8908081054688	984.9744262695315	-690.9882812500001	-466.1943969726564	1037.25732421875	-819.2885742187502	-469.9165954589845	1005.566223144531	-846.8079833984377	-469.4102172851564	1006.180603027344	-789.414489746094	-333.3604431152344	739.3971557617189	-1029.536010742188	-294.2521362304688	663.7686767578126	-1032.567138671875	-249.6690979003907	672.7255249023439	-1014.864074707031	-316.4360351562501	608.1549682617189	-1026.155883789063	-311.3530273437501	499.7542419433595	-1022.786437988281	-264.0263061523438	481.7398376464845	-900.911804199219	-245.3432922363282	380.9115295410157	-1001.907287597656	-303.9819030761719	341.6802368164063	-1052.415405273438	-262.5341186523438	335.9922180175782	-1034.852294921875	-260.3067932128907	253.9082336425782	-1013.218078613281	-323.2483825683594	108.9178009033203	-1042.173583984375	-295.6881408691407	119.5513381958008	-959.793151855469	-376.5489196777344	72.99374389648439	-1002.541809082031	-170.4528961181641	53.31126403808595	-967.4785766601565	-164.1095123291016	58.16846084594728	-1015.947692871094	-200.5457916259766	41.41808700561524	-1069.461059570313	-346.2476806640626	773.697448730469	-635.8766479492189	-302.8851318359376	725.0986328125001	-641.6828613281251	-272.4423217773438	734.9745483398439	-651.7868652343751	-322.0970153808594	642.4439697265626	-655.7896728515626	-323.6865844726563	489.4569702148439	-695.5868530273439	-283.9379577636719	493.4271545410157	-818.1687622070315	-280.7120056152344	345.4486389160157	-772.9027099609377	-340.1281738281251	267.6330566406251	-724.0061645507814	-303.4707641601563	262.5510253906251	-755.6641235351564	-317.6417541503907	222.6591949462891	-797.0539550781252	-397.5007629394532	108.3455123901367	-773.166687011719	-363.1629943847657	136.181869506836	-850.8487548828127	-447.9283142089845	91.0784378051758	-835.2188720703127	-242.8717956542969	59.29517364501955	-824.1646728515627	-248.3750305175782	56.58250427246095	-781.5232543945315	-290.0867309570313	34.60142135620118	-734.2885131835939	-422.3570861816407	1624.380004882813	-717.9609985351564	-305.2599487304688	981.5631103515627	-947.7058105468752	
187	0.93	-317.1641845703126	1707.517578125	-802.5728759765627	-456.4337768554689	1581.750854492188	-870.349060058594	-488.0902709960939	1464.70263671875	-814.4732055664065	-482.4518127441407	1138.97998046875	-814.824157714844	-341.0930786132813	1413.55419921875	-802.555603027344	-364.8611450195313	1447.162841796875	-954.715759277344	-247.9623413085938	1298.615112304688	-1059.024291992188	-209.5922851562501	1309.655883789063	-1029.9580078125	-187.8311309814453	1264.633422851563	-1064.151733398438	-112.0534286499024	1223.189575195313	-1053.551147460938	-160.2459411621094	1160.44970703125	-1010.214111328125	nan	nan	nan	77.03377532958986	1175.198852539063	-887.6934814453127	75.8721389770508	1209.795166015625	-785.7368774414065	-386.8696289062501	1437.969116210938	-650.8009033203126	-296.7157592773438	1274.4169921875	-533.5048217773439	-251.1311492919922	1281.735595703125	-550.3845214843751	-243.2501525878907	1230.375	-518.3558349609376	-181.5840759277344	1193.166748046875	-514.7310180664064	-202.7145233154297	1129.302490234375	-560.4030761718751	10.76455497741699	1204.408569335938	-717.0755004882814	37.37324905395509	1173.12890625	-651.5582885742189	93.8248977661133	1216.1875	-743.6203002929689	-303.0270385742188	984.8768310546877	-690.6342163085939	-466.3692932128907	1037.234130859375	-818.918151855469	-470.023406982422	1005.494262695313	-846.4519653320315	-469.5370483398439	1006.126586914063	-789.1347656250002	-333.4422912597657	739.3888549804689	-1029.251708984375	-294.3192749023438	663.9145507812501	-1032.394775390625	-249.781967163086	672.8471069335939	-1014.588989257813	-316.6824645996094	608.2030029296876	-1026.05029296875	-311.2657470703126	499.7591552734376	-1022.593017578125	-264.1106262207032	481.659149169922	-900.789489746094	-245.3480072021485	380.9005737304688	-1001.774780273438	-303.8154907226563	341.6096801757813	-1052.254760742188	-262.5111389160157	336.0973510742188	-1034.763793945313	-259.6926269531251	253.9870147705079	-1012.604431152344	-323.1367797851563	108.9722747802735	-1042.194458007813	-295.7210083007813	119.5598373413086	-959.7734375000002	-376.9645690917969	73.24618530273439	-1002.608459472656	-170.4248657226563	53.35475540161134	-967.6114501953127	-164.0965881347657	58.16927337646486	-1015.942687988281	-200.5686645507813	41.44879913330079	-1069.472778320313	-346.3190917968751	773.6684570312502	-635.6793212890626	-302.9499816894532	725.0994262695314	-641.3359985351564	-272.4828491210938	734.9578857421876	-651.5216064453126	-322.2084045410157	642.3362426757814	-655.5405273437501	-323.7764587402344	489.4038696289064	-695.4125976562501	-284.9942016601563	493.5266418457032	-818.181091308594	-280.7519531250001	345.4615783691407	-772.7974853515627	-340.1735229492188	267.5993652343751	-723.8861083984376	-303.3285522460938	262.5651550292969	-755.4865722656251	-317.6626892089844	222.698959350586	-797.0009765625002	-397.510955810547	108.3368759155274	-773.1692504882815	-363.1479797363282	136.137435913086	-850.727233886719	-447.9087524414064	91.0477752685547	-835.2635498046877	-242.8762359619141	59.3044891357422	-824.1672973632815	-248.3822784423829	56.60390090942384	-781.5545654296877	-290.0845031738282	34.61616134643555	-734.2781372070314	-422.9322509765626	1624.374877929688	-717.4057617187501	-305.8500671386719	981.6646118164065	-947.6170043945315	
188	0.9350000000000001	-317.7880554199219	1707.679565429688	-802.2651367187502	-456.9561767578126	1581.55712890625	-870.0095214843752	-488.4568176269532	1464.578002929688	-814.0397949218752	-482.6890563964845	1138.986206054688	-814.3706054687502	-341.3541870117188	1413.611328125	-802.2022094726565	-365.2027587890626	1447.397583007813	-953.9815673828127	-247.0917358398438	1300.512817382813	-1057.755249023438	-208.3494567871094	1311.513305664063	-1028.420166015625	-186.1580047607422	1266.876098632813	-1062.764404296875	-109.9453277587891	1226.254638671875	-1052.072387695313	-157.8461608886719	1163.197021484375	-1008.649169921875	nan	nan	nan	80.05673980712892	1179.506225585938	-887.1242675781252	78.7122268676758	1214.085693359375	-784.9778442382815	-387.1242980957032	1438.050048828125	-650.6026000976564	-295.3396911621094	1275.778442382813	-533.7993774414064	-249.9822235107422	1283.475952148438	-550.3258056640626	-241.3996582031251	1232.38232421875	-518.3415527343751	-179.5113220214844	1195.789428710938	-514.9316406250001	-200.0618438720704	1131.727172851563	-560.1946411132814	13.5390853881836	1208.364868164063	-716.5556640625001	40.28085327148438	1177.231323242188	-651.0328979492189	96.739860534668	1220.489135742188	-742.8813476562501	-303.1292724609376	984.7943115234377	-690.2956542968751	-466.5181274414064	1037.193725585938	-818.5650634765627	-470.1570129394532	1005.423156738281	-846.1118164062502	-469.7657470703126	1006.011291503906	-788.8155517578127	-332.9207763671876	739.2485961914064	-1028.866088867188	-294.5645141601563	663.9786987304689	-1032.145141601563	-249.8834991455079	672.8638305664064	-1014.336303710938	-316.6721191406251	608.2092285156251	-1025.8046875	-311.4197082519532	499.8283691406251	-1022.507446289063	-264.1428527832032	481.6902160644532	-900.6140136718752	-245.4265747070313	380.9560241699219	-1001.700805664063	-303.7937316894532	341.6084899902344	-1052.254638671875	-261.9555969238282	336.0572204589844	-1034.320678710938	-259.6640319824219	254.0075988769532	-1012.534240722656	-323.2758178710938	108.937255859375	-1042.199340820313	-295.7307434082032	119.5962219238282	-959.7783813476565	-376.9965515136719	73.26541137695314	-1002.6298828125	-170.7921447753907	53.41533279418947	-967.7698364257815	-164.47998046875	58.25176239013673	-1016.18603515625	-200.521469116211	41.41023635864259	-1069.445556640625	-346.4042663574219	773.5983886718752	-635.3652343750001	-303.0041503906251	725.0414428710939	-641.0927734375001	-272.5873413085938	734.9384155273439	-651.2972412109376	-322.2444152832032	642.2705078125001	-655.2552490234376	-323.8299255371094	489.3410644531251	-695.2368164062501	-285.0590820312501	493.5469360351564	-817.973571777344	-281.2127990722657	345.4593505859376	-772.9944458007815	-340.1391601562501	267.6014709472657	-723.7926635742189	-303.4104309082032	262.5794982910157	-755.4573364257814	-317.7149353027344	222.6658172607422	-796.8840942382815	-397.5852355957032	108.3345718383789	-773.1041259765627	-363.1611022949219	136.2001190185547	-850.780700683594	-447.9671936035157	91.00774383544923	-835.2192993164065	-242.8753356933594	59.29710006713869	-824.1751708984377	-248.3666687011719	56.54536819458009	-781.5994262695315	-290.0921325683594	34.60508728027344	-734.3064575195314	-423.3476562500001	1624.306518554688	-717.1328735351564	-305.2221374511719	981.5579223632815	-947.023132324219	
